<mxfile host="app.diagrams.net" modified="2022-04-26T15:03:59.521Z" agent="5.0 (Windows NT 10.0; Win64; x64) AppleWebKit/537.36 (KHTML, like Gecko) Chrome/100.0.4896.127 Safari/537.36" etag="PupPhVMreIMx8FqvhVOW" version="17.2.6" type="github">
  <diagram id="gJJPGs2VK2_4q9_w60SD" name="Page-1">
    <mxGraphModel dx="2838" dy="1166" grid="1" gridSize="10" guides="1" tooltips="1" connect="1" arrows="1" fold="1" page="1" pageScale="1" pageWidth="1169" pageHeight="1654" math="0" shadow="0">
      <root>
        <mxCell id="0" />
        <mxCell id="1" parent="0" />
        <mxCell id="N3nrQvBV8vnrWF1qP4O--16" value="" style="rounded=0;whiteSpace=wrap;html=1;fontSize=13;" vertex="1" parent="1">
          <mxGeometry x="30" y="250" width="1030" height="1020" as="geometry" />
        </mxCell>
        <mxCell id="N3nrQvBV8vnrWF1qP4O--23" value="" style="rounded=0;whiteSpace=wrap;html=1;fontSize=14;" vertex="1" parent="1">
          <mxGeometry x="640" y="292.5" width="370" height="540" as="geometry" />
        </mxCell>
        <mxCell id="N3nrQvBV8vnrWF1qP4O--1" value="&lt;font style=&quot;font-size: 15px&quot;&gt;&lt;b&gt;&lt;br&gt;&lt;br&gt;&lt;br&gt;test-data-management&lt;br&gt;&lt;br&gt;/test-data-management&lt;br&gt;&lt;/b&gt;&lt;/font&gt;" style="rounded=0;whiteSpace=wrap;html=1;fontSize=13;" vertex="1" parent="1">
          <mxGeometry x="280" y="20" width="200" height="160" as="geometry" />
        </mxCell>
        <mxCell id="N3nrQvBV8vnrWF1qP4O--4" value="" style="endArrow=classic;html=1;rounded=0;entryX=0.583;entryY=0;entryDx=0;entryDy=0;entryPerimeter=0;fontSize=13;" edge="1" parent="1" source="N3nrQvBV8vnrWF1qP4O--1" target="N3nrQvBV8vnrWF1qP4O--2">
          <mxGeometry width="50" height="50" relative="1" as="geometry">
            <mxPoint x="470" y="420" as="sourcePoint" />
            <mxPoint x="520" y="370" as="targetPoint" />
          </mxGeometry>
        </mxCell>
        <mxCell id="N3nrQvBV8vnrWF1qP4O--6" value="datasource-manual&lt;br style=&quot;font-size: 13px&quot;&gt;&lt;br style=&quot;font-size: 13px&quot;&gt;/manual" style="rounded=0;whiteSpace=wrap;html=1;fontSize=13;" vertex="1" parent="1">
          <mxGeometry x="770" y="320" width="150" height="60" as="geometry" />
        </mxCell>
        <mxCell id="N3nrQvBV8vnrWF1qP4O--7" value="" style="endArrow=classic;html=1;rounded=0;entryX=0.5;entryY=0;entryDx=0;entryDy=0;fontSize=13;" edge="1" parent="1" source="N3nrQvBV8vnrWF1qP4O--1" target="N3nrQvBV8vnrWF1qP4O--5">
          <mxGeometry width="50" height="50" relative="1" as="geometry">
            <mxPoint x="375.7789473684211" y="220.0000000000001" as="sourcePoint" />
            <mxPoint x="209.96000000000004" y="290.0000000000001" as="targetPoint" />
          </mxGeometry>
        </mxCell>
        <mxCell id="N3nrQvBV8vnrWF1qP4O--8" value="" style="endArrow=classic;html=1;rounded=0;entryX=0.5;entryY=0;entryDx=0;entryDy=0;fontSize=13;" edge="1" parent="1" source="N3nrQvBV8vnrWF1qP4O--1" target="N3nrQvBV8vnrWF1qP4O--6">
          <mxGeometry width="50" height="50" relative="1" as="geometry">
            <mxPoint x="479.9973684210527" y="210.0000000000001" as="sourcePoint" />
            <mxPoint x="491.05000000000024" y="280.0000000000001" as="targetPoint" />
          </mxGeometry>
        </mxCell>
        <mxCell id="N3nrQvBV8vnrWF1qP4O--18" value="" style="group;fontSize=13;" vertex="1" connectable="0" parent="1">
          <mxGeometry x="55" y="335" width="480" height="420" as="geometry" />
        </mxCell>
        <mxCell id="N3nrQvBV8vnrWF1qP4O--28" value="" style="rounded=0;whiteSpace=wrap;html=1;fontSize=18;" vertex="1" parent="N3nrQvBV8vnrWF1qP4O--18">
          <mxGeometry x="7.659999999999999" y="115" width="467.81" height="392.5" as="geometry" />
        </mxCell>
        <mxCell id="N3nrQvBV8vnrWF1qP4O--2" value="database&lt;br style=&quot;font-size: 13px&quot;&gt;&lt;br style=&quot;font-size: 13px&quot;&gt;/database" style="rounded=0;whiteSpace=wrap;html=1;fontSize=13;" vertex="1" parent="N3nrQvBV8vnrWF1qP4O--18">
          <mxGeometry x="17.345" y="137.5" width="153.125" height="56.86567164179104" as="geometry" />
        </mxCell>
        <mxCell id="N3nrQvBV8vnrWF1qP4O--9" value="database-connection&lt;br style=&quot;font-size: 13px;&quot;&gt;&lt;br style=&quot;font-size: 13px;&quot;&gt;Dialog&amp;nbsp;" style="ellipse;whiteSpace=wrap;html=1;fontSize=13;" vertex="1" parent="N3nrQvBV8vnrWF1qP4O--18">
          <mxGeometry x="260.47" y="155" width="165" height="71.08" as="geometry" />
        </mxCell>
        <mxCell id="N3nrQvBV8vnrWF1qP4O--12" value="database-connections-listing" style="ellipse;whiteSpace=wrap;html=1;fontSize=13;" vertex="1" parent="N3nrQvBV8vnrWF1qP4O--18">
          <mxGeometry x="17.35" y="244.99791044776117" width="153.125" height="66.34328358208955" as="geometry" />
        </mxCell>
        <mxCell id="N3nrQvBV8vnrWF1qP4O--15" value="right side will be plain html in &quot;database-connections&quot; component, tabs, data-table component to be used to show response data" style="ellipse;whiteSpace=wrap;html=1;fontSize=13;" vertex="1" parent="N3nrQvBV8vnrWF1qP4O--18">
          <mxGeometry x="175" y="292.78" width="287.8" height="127.22" as="geometry" />
        </mxCell>
        <mxCell id="N3nrQvBV8vnrWF1qP4O--29" value="data-source/&lt;br&gt;&lt;br&gt;&lt;div style=&quot;text-align: left&quot;&gt;&lt;span&gt;/database&lt;/span&gt;&lt;/div&gt;&lt;div style=&quot;text-align: left&quot;&gt;&lt;span&gt;/api&lt;/span&gt;&lt;/div&gt;&lt;div style=&quot;text-align: left&quot;&gt;&lt;span&gt;/manual&lt;/span&gt;&lt;/div&gt;" style="text;html=1;align=center;verticalAlign=middle;resizable=0;points=[];autosize=1;strokeColor=none;fillColor=none;fontSize=18;" vertex="1" parent="N3nrQvBV8vnrWF1qP4O--18">
          <mxGeometry x="7.659999999999997" y="-75" width="120" height="120" as="geometry" />
        </mxCell>
        <mxCell id="N3nrQvBV8vnrWF1qP4O--22" value="" style="group" vertex="1" connectable="0" parent="1">
          <mxGeometry x="420" y="900" width="460" height="340" as="geometry" />
        </mxCell>
        <mxCell id="N3nrQvBV8vnrWF1qP4O--19" value="" style="rounded=0;whiteSpace=wrap;html=1;fontSize=13;" vertex="1" parent="N3nrQvBV8vnrWF1qP4O--22">
          <mxGeometry width="460" height="340" as="geometry" />
        </mxCell>
        <mxCell id="N3nrQvBV8vnrWF1qP4O--5" value="datasource-tables-api&lt;br style=&quot;font-size: 13px&quot;&gt;&lt;br style=&quot;font-size: 13px&quot;&gt;/api" style="rounded=0;whiteSpace=wrap;html=1;fontSize=13;" vertex="1" parent="N3nrQvBV8vnrWF1qP4O--22">
          <mxGeometry x="135" y="26.67" width="190" height="63.33" as="geometry" />
        </mxCell>
        <mxCell id="N3nrQvBV8vnrWF1qP4O--20" value="tables-listing (common component)" style="ellipse;whiteSpace=wrap;html=1;fontSize=13;" vertex="1" parent="N3nrQvBV8vnrWF1qP4O--22">
          <mxGeometry x="10" y="125" width="175" height="66.66666666666666" as="geometry" />
        </mxCell>
        <mxCell id="N3nrQvBV8vnrWF1qP4O--21" value="right side will be plain html and ts integration with use of mappings-table, codemirror and tabs&lt;br style=&quot;font-size: 14px;&quot;&gt;" style="ellipse;whiteSpace=wrap;html=1;fontSize=14;" vertex="1" parent="N3nrQvBV8vnrWF1qP4O--22">
          <mxGeometry x="100" y="206.66666666666666" width="330" height="113.33333333333334" as="geometry" />
        </mxCell>
        <mxCell id="N3nrQvBV8vnrWF1qP4O--24" value="tables-listing (common component)" style="ellipse;whiteSpace=wrap;html=1;fontSize=13;" vertex="1" parent="1">
          <mxGeometry x="670" y="400" width="175" height="100" as="geometry" />
        </mxCell>
        <mxCell id="N3nrQvBV8vnrWF1qP4O--25" value="data-table (common component)" style="ellipse;whiteSpace=wrap;html=1;fontSize=14;" vertex="1" parent="1">
          <mxGeometry x="770" y="570" width="230" height="110" as="geometry" />
        </mxCell>
        <mxCell id="N3nrQvBV8vnrWF1qP4O--26" value="tdm-header" style="ellipse;whiteSpace=wrap;html=1;fontSize=14;" vertex="1" parent="1">
          <mxGeometry x="320" y="30" width="120" height="60" as="geometry" />
        </mxCell>
        <mxCell id="N3nrQvBV8vnrWF1qP4O--27" value="&lt;font style=&quot;font-size: 18px&quot;&gt;NO BOOTSTRAP MODALS, we should use resuable dialogs&lt;br&gt;Use ngrx store for all data sharing and state management.&lt;/font&gt;" style="text;html=1;align=center;verticalAlign=middle;resizable=0;points=[];autosize=1;strokeColor=none;fillColor=none;fontSize=15;" vertex="1" parent="1">
          <mxGeometry x="630" y="1515" width="500" height="40" as="geometry" />
        </mxCell>
        <mxCell id="N3nrQvBV8vnrWF1qP4O--30" value="" style="rounded=0;whiteSpace=wrap;html=1;fontSize=18;" vertex="1" parent="1">
          <mxGeometry x="620" y="10" width="490" height="180" as="geometry" />
        </mxCell>
        <mxCell id="N3nrQvBV8vnrWF1qP4O--14" value="&lt;b style=&quot;font-size: 15px&quot;&gt;Common components&lt;br style=&quot;font-size: 15px&quot;&gt;&lt;ul style=&quot;font-size: 15px&quot;&gt;&lt;li style=&quot;font-size: 15px&quot;&gt;data-table (includes search, filters, sorting)&lt;/li&gt;&lt;li style=&quot;font-size: 15px&quot;&gt;tables-listing (inlcudes search, dropdown,&amp;nbsp; )&lt;/li&gt;&lt;li style=&quot;font-size: 15px&quot;&gt;mappings-table (ag-grid or mat-table with color themes)&lt;/li&gt;&lt;/ul&gt;&lt;/b&gt;" style="text;html=1;align=left;verticalAlign=middle;resizable=0;points=[];autosize=1;strokeColor=none;fillColor=none;fontSize=15;" vertex="1" parent="1">
          <mxGeometry x="630" y="50" width="450" height="110" as="geometry" />
        </mxCell>
      </root>
    </mxGraphModel>
  </diagram>
</mxfile>
